HIERARCHY
ROOT Hips
{
 OFFSET 0.000000 0.000000 0.000000
 CHANNELS 6 Xposition Yposition Zposition Yrotation Xrotation Zrotation
 JOINT Chest
 {
  OFFSET 0.000000 12.778769 -0.025672
  CHANNELS 3 Yrotation Xrotation Zrotation
  JOINT Chest2
  {
   OFFSET 0.000000 9.048585 0.046633
   CHANNELS 3 Yrotation Xrotation Zrotation
   JOINT Chest3
   {
    OFFSET 0.000000 8.173956 0.000000
    CHANNELS 3 Yrotation Xrotation Zrotation
    JOINT Chest4
    {
     OFFSET 0.000000 8.173956 0.000000
     CHANNELS 3 Yrotation Xrotation Zrotation
     JOINT Neck
     {
      OFFSET 0.000000 11.254521 0.000000
      CHANNELS 3 Yrotation Xrotation Zrotation
      JOINT Head
      {
       OFFSET 0.000000 7.627541 0.110895
       CHANNELS 3 Yrotation Xrotation Zrotation
       End Site
       {
        OFFSET 0.000000 14.324091 0.057923
       }
      }
     }
     JOINT RightCollar
     {
      OFFSET -2.416021 6.309018 0.000000
      CHANNELS 3 Yrotation Xrotation Zrotation
      JOINT RightShoulder
      {
       OFFSET -12.309578 0.000000 0.000000
       CHANNELS 3 Yrotation Xrotation Zrotation
       JOINT RightElbow
       {
        OFFSET -26.817880 0.000000 0.000000
        CHANNELS 3 Yrotation Xrotation Zrotation
        JOINT RightWrist
        {
         OFFSET -22.046493 0.000000 0.005727
         CHANNELS 3 Yrotation Xrotation Zrotation
         End Site
         {
          OFFSET -16.516461 0.000000 0.000000
         }
        }
       }
      }
     }
     JOINT LeftCollar
     {
      OFFSET 2.416021 6.309018 0.000000
      CHANNELS 3 Yrotation Xrotation Zrotation
      JOINT LeftShoulder
      {
       OFFSET 12.309578 0.000000 0.000000
       CHANNELS 3 Yrotation Xrotation Zrotation
       JOINT LeftElbow
       {
        OFFSET 26.817880 0.000000 0.000000
        CHANNELS 3 Yrotation Xrotation Zrotation
        JOINT LeftWrist
        {
         OFFSET 22.046493 0.000000 0.005727
         CHANNELS 3 Yrotation Xrotation Zrotation
         End Site
         {
          OFFSET 16.516461 0.000000 0.000000
         }
        }
       }
      }
     }
    }
   }
  }
 }
 JOINT RightHip
 {
  OFFSET -10.582077 0.125794 0.012836
  CHANNELS 3 Yrotation Xrotation Zrotation
  JOINT RightKnee
  {
   OFFSET 0.000000 -43.218284 0.001140
   CHANNELS 3 Yrotation Xrotation Zrotation
   JOINT RightAnkle
   {
    OFFSET 0.000000 -37.342314 0.092095
    CHANNELS 3 Yrotation Xrotation Zrotation
    JOINT RightToe
    {
     OFFSET 0.000000 -11.963287 17.799678
     CHANNELS 3 Yrotation Xrotation Zrotation
     End Site
     {
      OFFSET 0.000000 -1.355498 5.291052
     }
    }
   }
  }
 }
 JOINT LeftHip
 {
  OFFSET 10.582077 0.125794 0.012836
  CHANNELS 3 Yrotation Xrotation Zrotation
  JOINT LeftKnee
  {
   OFFSET 0.000000 -43.218284 0.001140
   CHANNELS 3 Yrotation Xrotation Zrotation
   JOINT LeftAnkle
   {
    OFFSET 0.000000 -37.342314 0.092095
    CHANNELS 3 Yrotation Xrotation Zrotation
    JOINT LeftToe
    {
     OFFSET 0.000000 -11.963287 17.799678
     CHANNELS 3 Yrotation Xrotation Zrotation
     End Site
     {
      OFFSET 0.000000 -1.355498 5.291052
     }
    }
   }
  }
 }
}
MOTION
Frames: 5
Frame Time: 0.016667
-67.603109 92.864989 -81.237731 -165.579014 -8.954402 -0.360052 0.092230 -0.827287 -1.900059 0.164499 -0.180728 -1.204891 0.164499 -0.180728 -1.204891 0.123018 -0.135871 -0.903619 3.165622 29.957195 3.807725 4.929995 19.391788 6.182820 -2.857841 25.508145 21.543329 -28.079747 25.685640 22.652886 -59.574521 49.187410 29.519885 3.300876 1.553602 -4.903054 1.159571 20.947874 -6.311681 59.527807 -9.960334 3.399407 56.327671 14.781219 -21.687454 15.826818 -0.223472 8.786328 5.018039 14.206622 2.946685 8.642572 -2.391169 2.848229 -4.392447 -11.538929 1.552291 0.132980 0.989097 0.648198 15.776127 32.436491 6.665425 3.278762 -24.397296 -3.740441 5.317162 -1.905546 -8.160793 -2.219827 0.455529 -0.970006
-67.503012 92.844165 -81.249058 -166.027833 -8.869893 -0.314588 -0.145508 -1.150020 -2.123342 0.128563 -0.213904 -1.306012 0.128563 -0.213904 -1.306012 0.095966 -0.160704 -0.979463 3.381802 30.075638 3.918911 5.298198 19.605111 6.345229 -2.300547 25.628667 21.954474 -32.282197 25.516873 20.462936 -61.915061 50.259175 25.196351 1.114334 2.313981 -5.376332 0.882136 21.660279 -6.273801 59.961406 -10.248071 2.316860 57.724186 14.453823 -22.410126 15.323777 -0.373807 9.018965 5.294190 13.789845 2.932924 8.425029 -1.876683 3.176943 -4.231719 -11.706934 1.067969 0.218082 1.118254 0.748519 16.675575 33.104693 7.103217 3.099078 -25.666285 -3.885614 4.773710 -2.198283 -8.797002 -2.041097 0.737604 -0.637164
-67.405706 92.863908 -81.336436 -166.376534 -9.011390 -0.135545 -0.575781 -1.275940 -2.500492 0.114021 -0.244985 -1.417473 0.114021 -0.244985 -1.417473 0.084948 -0.184005 -1.063058 3.630209 30.199803 4.043767 5.721580 19.827923 6.527008 -1.787577 25.725811 22.395308 -36.592638 24.997707 18.053489 -63.996023 51.455209 20.741538 -1.106805 2.551733 -6.061609 0.570855 22.445374 -6.238640 60.477026 -10.566633 1.155798 59.154169 14.147235 -23.178778 14.877131 -0.465569 9.204034 5.005427 13.859646 2.796228 8.497870 -1.635057 3.312300 -4.013579 -11.739000 0.610209 0.360073 1.183170 0.875248 17.511673 33.981986 7.416838 2.657551 -27.004536 -3.892739 4.306965 -2.421705 -9.486300 -1.594180 1.023867 -0.235160
-67.249347 92.941493 -81.689174 -167.144929 -9.547360 0.068529 -0.686413 -1.002707 -2.856260 0.107652 -0.267131 -1.544445 0.107652 -0.267131 -1.544445 0.080065 -0.200622 -1.158285 3.919754 30.309369 4.178314 6.215739 20.022328 6.718885 -1.250078 25.677554 22.891155 -40.912436 24.260152 15.458989 -65.792244 52.663374 16.247264 -3.388032 2.338175 -6.905040 0.285161 23.230292 -6.169384 61.048249 -10.918661 -0.090418 60.632944 13.968401 -24.055492 14.483064 -0.515229 9.320251 4.867095 14.481062 2.778505 8.972802 -1.516289 3.303623 -3.849692 -11.600357 0.201103 0.412844 1.061340 0.938062 19.051456 35.390314 7.989991 1.795787 -28.720596 -3.710210 3.893452 -2.406871 -10.196012 -0.933692 1.222999 0.217431
-67.027441 93.060647 -82.199155 -168.323703 -10.080997 0.324649 -0.407598 -0.744866 -3.152352 0.136701 -0.300594 -1.663995 0.136701 -0.300594 -1.663995 0.101708 -0.225820 -1.247926 4.172937 30.434840 4.297771 6.649157 20.247128 6.891850 -0.852024 25.593804 23.335690 -45.161320 23.266195 12.660345 -67.426954 53.758957 11.573175 -5.614175 2.019180 -7.661188 -0.509869 23.986516 -6.301595 61.981121 -11.253494 -1.366731 62.157029 13.926142 -24.942916 14.084370 -0.477947 9.312660 4.914443 15.121741 2.810750 9.841954 -1.343017 3.193605 -3.826740 -11.418303 -0.146126 0.386537 0.844275 0.933181 21.236327 37.097082 8.744229 0.563341 -30.975320 -3.391182 3.698016 -2.133272 -10.691109 -0.452883 1.380537 0.498017
